<svg xmlns="http://www.w3.org/2000/svg" width="19.944" height="22.048" viewBox="0 0 19.944 22.048"><defs><style>.a{fill:none;stroke:#7a8fa6;stroke-linecap:round;stroke-linejoin:round;}</style></defs><g transform="translate(0.5 0.5)"><path class="a" d="M28.815,6.157A3.157,3.157,0,1,1,25.657,3,3.157,3.157,0,0,1,28.815,6.157Z" transform="translate(-9.871 -3)"/><path class="a" d="M10.815,16.657A3.157,3.157,0,1,1,7.657,13.5,3.157,3.157,0,0,1,10.815,16.657Z" transform="translate(-4.5 -6.133)"/><path class="a" d="M28.815,27.157A3.157,3.157,0,1,1,25.657,24,3.157,3.157,0,0,1,28.815,27.157Z" transform="translate(-9.871 -9.266)"/><path class="a" d="M12.885,20.265l7.188,4.189" transform="translate(-7.002 -8.152)"/><path class="a" d="M20.062,9.765l-7.177,4.189" transform="translate(-7.002 -5.019)"/></g></svg>