<svg xmlns="http://www.w3.org/2000/svg" width="22.15" height="22.15" viewBox="0 0 22.15 22.15"><defs><style>.a{fill:none;stroke:#7a8fa6;}</style></defs><path class="a" d="M10.575,17.185A8.592,8.592,0,1,0,1.983,8.592,8.591,8.591,0,0,0,10.575,17.185ZM9.658,4.024V3.33a.684.684,0,0,1,.686-.686H10.8a.684.684,0,0,1,.686.686v.7a3.257,3.257,0,0,1,1.776.636.463.463,0,0,1,.05.706l-.673.64a.466.466,0,0,1-.578.041,1.36,1.36,0,0,0-.735-.211H9.72a.718.718,0,0,0-.673.756.746.746,0,0,0,.5.727L12.12,8.1a2.588,2.588,0,0,1,1.805,2.483,2.547,2.547,0,0,1-2.441,2.578v.694a.684.684,0,0,1-.686.686H10.34a.684.684,0,0,1-.686-.686v-.7a3.257,3.257,0,0,1-1.776-.636.463.463,0,0,1-.05-.706l.673-.64a.466.466,0,0,1,.578-.041,1.36,1.36,0,0,0,.735.211h1.607a.718.718,0,0,0,.673-.756.746.746,0,0,0-.5-.727L9.022,9.084A2.588,2.588,0,0,1,7.217,6.6,2.55,2.55,0,0,1,9.658,4.024Zm10.17,10.517H18.486a10.012,10.012,0,0,1-3.016,2.644h2.636a.369.369,0,0,1,.4.33v.661a.369.369,0,0,1-.4.33H3.04a.369.369,0,0,1-.4-.33v-.661a.369.369,0,0,1,.4-.33H5.676A10.062,10.062,0,0,1,2.66,14.541H1.322A1.32,1.32,0,0,0,0,15.863v3.966A1.32,1.32,0,0,0,1.322,21.15H19.828a1.32,1.32,0,0,0,1.322-1.322V15.863A1.32,1.32,0,0,0,19.828,14.541Z" transform="translate(0.5 0.5)"/></svg>