<svg xmlns="http://www.w3.org/2000/svg" width="28.358" height="20.15" viewBox="0 0 28.358 20.15"><defs><style>.a{fill:none;stroke:#7a8fa6;}</style></defs><path class="a" d="M25.99,14.561H23.254V17.3h.958a.381.381,0,0,1,.41.342v.684a.381.381,0,0,1-.41.342H3.146a.381.381,0,0,1-.41-.342v-.684a.381.381,0,0,1,.41-.342H4.1V14.561H1.368A1.366,1.366,0,0,0,0,15.929v4.1A1.366,1.366,0,0,0,1.368,21.4H25.99a1.366,1.366,0,0,0,1.368-1.368v-4.1A1.366,1.366,0,0,0,25.99,14.561Zm-4.1,2.736V3.631A1.38,1.38,0,0,0,20.505,2.25H6.857A1.384,1.384,0,0,0,5.472,3.631V17.3ZM9.028,9.517l1.09-1.081a.455.455,0,0,1,.65,0l1.765,1.778L16.6,6.183a.455.455,0,0,1,.65,0l1.081,1.09a.455.455,0,0,1,0,.65l-5.484,5.437a.455.455,0,0,1-.65,0L9.028,10.167a.455.455,0,0,1,0-.65Z" transform="translate(0.5 -1.75)"/></svg>